<svg xmlns="http://www.w3.org/2000/svg" width="1500" height="500" viewBox="300 800 1500 500">
  <defs>
    <style>
      .cls-1 {
        fill: #111;
        fill-rule: evenodd;
      }
    </style>
  </defs>
  <path id="corsa" class="cls-1" d="M812.017,960.5a45.115,45.115,0,0,1-2.859,14.7H795.683a54.551,54.551,0,0,0-2.041,14.7q0,16.755,9.8,25.32t25.929,8.57q16.125,0,25.317-9.8t9.187-31.032q0-21.226-19.192-35.321T789.15,933.55q-51.45,0-80.238,26.542t-28.787,75.748q0,49.2,25.317,74.72t72.683,25.52q37.152,0,58.392-15.92,20.824-15.51,28.583-50.63l-7.35-.82a78.563,78.563,0,0,1-18.375,37.16q-14.3,16.335-38.383,16.33t-33.075-17.56q-8.986-17.55-8.984-57.98v-21.23q0-45.333,7.759-64.93t25.725-19.6q19.6,0,19.6,19.6h0Zm191.5,149.86q-4.9,18.375-20.826,18.37-13.072,0-17.558-9.8a90.892,90.892,0,0,1-5.512-14.7q-2.661-8.97-2.655-53.49v-31.85q0-37.561,3.675-55.94Q963.1,951.112,968.607,946t14.5-5.1q15.513,0,19.807,18.171t4.28,57.779v34.71q0,45.735-3.67,58.8h0Zm-21.642,25.72q103.713,0,103.712-104.12,0-49.817-24.9-74.114-24.915-24.289-75.546-24.3t-78.6,26.337q-27.974,26.339-27.971,75.133t26.134,74.93q26.127,26.13,77.175,26.13h0ZM1241.99,969.892h-14.7q-6.54,21.648,2.24,33.888,8.775,12.255,27.36,12.25t27.56-10.61q8.985-10.618,8.99-30.424t-12.05-30.625q-12.045-10.815-31.24-10.821a56.025,56.025,0,0,0-34.3,11.229q-15.105,11.236-20.41,32.054v-39.2h-98.41v7.35h22.46V1124.65h-22.46V1132h127.4v-7.35h-28.99V1015.22q0-26.955,11.43-46.553t26.54-19.6q18.78,0,8.58,20.825h0Zm66.55,166.188q8.58-15.09,17.56-15.1,2.85,0,7.76,3.26a108.352,108.352,0,0,0,49,11.84q35.52,0,55.94-17.76t20.42-52.27q0-34.5-22.46-50.02a137.216,137.216,0,0,0-23.27-12.45q-12.255-5.1-40.02-12.047a59.288,59.288,0,0,1-7.55-2.041q-5.115-1.627-7.56-2.655t-6.12-2.858a20.732,20.732,0,0,1-5.31-3.471q-1.635-1.626-4.49-5.1t-2.86-9.6q0-10.2,9.39-16.945t28.58-6.738q43.7,0,64.52,53.083h4.9V932.733h-4.49q-4.1,7.763-6.94,10.617a9.47,9.47,0,0,1-6.95,2.858q-4.08,0-11.84-3.266-21.225-9.389-41.24-9.392-32.67,0-52.27,18.988t-19.6,50.842q0,31.845,22.46,46.55,18.78,12.24,46.55,19.6,24.9,4.89,40.84,13.88,10.2,5.715,10.2,17.15,0,26.55-41.65,26.54-26.94,0-44.91-14.29t-28.59-49.82h-4.9v73.09h4.9Zm190.08-89.22q-23.07,10.83-23.07,39.81,0,49.425,60.43,49.41,20.415,0,31.04-7.35,10.605-7.35,15.92-22.86,7.35,30.225,56.35,30.21,26.955,0,38.79-13.47t13.48-49.41l-6.13-.41q-2.445,42.06-16.33,42.06-11.85,0-11.84-21.23v-82.9q0-44.092-18.58-60.633t-67.17-16.537q-85.35,0-85.34,50.225,0,33.893,35.11,33.895,15.51,0,25.73-8.78,10.2-8.775,10.21-20.828t-3.27-20.62h-10.21a41,41,0,0,1-2.45-13.68,12.073,12.073,0,0,1,5.92-10.616,23.685,23.685,0,0,1,13.27-3.879q12.255,0,16.54,13.271t4.29,52.062v31.44h-11.84Q1521.695,1036.04,1498.62,1046.86Zm54.51,39.41v-6.54q0-37.14,25.32-37.16h2.86v37.98q0,18.375-5.51,28.79t-11.85,10.41q-6.33,0-8.57-6.13t-2.25-27.35h0Z"/>
  <path id="o" class="cls-1" d="M609.181,1085.98q5.938,18.075-7.4,26.77-10.948,7.155-20.061,1.39a89.684,89.684,0,0,1-12.65-9.3q-7.134-6.06-31.455-43.34l-17.406-26.68q-20.529-31.455-27.5-48.853-4.418-11.253-2.592-18.543t9.35-12.2q12.993-8.478,26.516,4.394t35.166,46.048l18.968,29.06q25,38.31,29.057,51.25h0Zm-4.066,33.38q86.856-56.685,29.955-143.886-27.222-41.717-61.362-48.454t-76.541,20.937q-42.4,27.672-51.434,65.013t17.635,78.21q26.668,40.86,62.834,48.47t78.913-20.29h0Z"/>
  <path id="_." data-name="." class="cls-1" d="M578.613,1203.29q4.5-4.8,4.5-13.2t-4.8-12.6q-4.8-4.2-13-4.2t-12.7,5a17.7,17.7,0,0,0-4.5,12.3,18.579,18.579,0,0,0,4.3,12.4q4.3,5.1,13,5.1T578.613,1203.29Z"/>
</svg>
